<svg width="240" height="180" viewBox="0 0 240 180" fill="none" xmlns="http://www.w3.org/2000/svg">
<rect width="240" height="180" rx="16" fill="#E1793E"/>
<path d="M0 83H240V148C240 163.085 240 170.627 235.314 175.314C230.627 180 223.085 180 208 180H32C16.9151 180 9.37258 180 4.68629 175.314C0 170.627 0 163.085 0 148V83Z" fill="url(#paint0_linear_55_23)"/>
<path d="M217.474 78L215 80.7025L223.035 89.5L215 98.2975L217.474 101L228 89.5L217.474 78Z" fill="white"/>
<path d="M22.5263 78L25 80.7025L16.9649 89.5L25 98.2975L22.5263 101L12 89.5L22.5263 78Z" fill="white"/>
<path d="M25.4531 137H23.5859V127.18H20.2266V125.578H28.8125V127.18H25.4531V137ZM34.1484 137.156C32.8047 137.156 31.7526 136.766 30.9922 135.984C30.237 135.198 29.8594 134.117 29.8594 132.742C29.8594 131.331 30.2109 130.221 30.9141 129.414C31.6172 128.607 32.5833 128.203 33.8125 128.203C34.9531 128.203 35.8542 128.549 36.5156 129.242C37.1771 129.935 37.5078 130.888 37.5078 132.102V133.094H31.75C31.776 133.932 32.0026 134.578 32.4297 135.031C32.8568 135.479 33.4583 135.703 34.2344 135.703C34.7448 135.703 35.2188 135.656 35.6562 135.562C36.099 135.464 36.5729 135.302 37.0781 135.078V136.57C36.6302 136.784 36.1771 136.935 35.7188 137.023C35.2604 137.112 34.737 137.156 34.1484 137.156ZM33.8125 129.594C33.2292 129.594 32.7604 129.779 32.4062 130.148C32.0573 130.518 31.849 131.057 31.7812 131.766H35.7031C35.6927 131.052 35.5208 130.513 35.1875 130.148C34.8542 129.779 34.3958 129.594 33.8125 129.594ZM41.5156 132.586L38.6172 128.359H40.7109L42.6797 131.383L44.6641 128.359H46.7422L43.8359 132.586L46.8906 137H44.8125L42.6797 133.766L40.5547 137H38.4766L41.5156 132.586ZM51.625 135.672C52.0729 135.672 52.5208 135.602 52.9688 135.461V136.844C52.7656 136.932 52.5026 137.005 52.1797 137.062C51.862 137.125 51.5312 137.156 51.1875 137.156C49.4479 137.156 48.5781 136.24 48.5781 134.406V129.75H47.3984V128.938L48.6641 128.266L49.2891 126.438H50.4219V128.359H52.8828V129.75H50.4219V134.375C50.4219 134.818 50.5312 135.146 50.75 135.359C50.974 135.568 51.2656 135.672 51.625 135.672ZM25.4531 159H23.5859V149.18H20.2266V147.578H28.8125V149.18H25.4531V159ZM34.1484 159.156C32.8047 159.156 31.7526 158.766 30.9922 157.984C30.237 157.198 29.8594 156.117 29.8594 154.742C29.8594 153.331 30.2109 152.221 30.9141 151.414C31.6172 150.607 32.5833 150.203 33.8125 150.203C34.9531 150.203 35.8542 150.549 36.5156 151.242C37.1771 151.935 37.5078 152.888 37.5078 154.102V155.094H31.75C31.776 155.932 32.0026 156.578 32.4297 157.031C32.8568 157.479 33.4583 157.703 34.2344 157.703C34.7448 157.703 35.2188 157.656 35.6562 157.562C36.099 157.464 36.5729 157.302 37.0781 157.078V158.57C36.6302 158.784 36.1771 158.935 35.7188 159.023C35.2604 159.112 34.737 159.156 34.1484 159.156ZM33.8125 151.594C33.2292 151.594 32.7604 151.779 32.4062 152.148C32.0573 152.518 31.849 153.057 31.7812 153.766H35.7031C35.6927 153.052 35.5208 152.513 35.1875 152.148C34.8542 151.779 34.3958 151.594 33.8125 151.594ZM41.5156 154.586L38.6172 150.359H40.7109L42.6797 153.383L44.6641 150.359H46.7422L43.8359 154.586L46.8906 159H44.8125L42.6797 155.766L40.5547 159H38.4766L41.5156 154.586ZM51.625 157.672C52.0729 157.672 52.5208 157.602 52.9688 157.461V158.844C52.7656 158.932 52.5026 159.005 52.1797 159.062C51.862 159.125 51.5312 159.156 51.1875 159.156C49.4479 159.156 48.5781 158.24 48.5781 156.406V151.75H47.3984V150.938L48.6641 150.266L49.2891 148.438H50.4219V150.359H52.8828V151.75H50.4219V156.375C50.4219 156.818 50.5312 157.146 50.75 157.359C50.974 157.568 51.2656 157.672 51.625 157.672Z" fill="white"/>
<path d="M145.821 57L108.417 105.571L82.789 71.2857L44 122H195L145.821 57Z" fill="#B0B0B0"/>
<defs>
<linearGradient id="paint0_linear_55_23" x1="120" y1="83" x2="120" y2="180" gradientUnits="userSpaceOnUse">
<stop stop-opacity="0"/>
<stop offset="1" stop-opacity="0.4"/>
</linearGradient>
</defs>
</svg>
