<svg width="1120" height="280" viewBox="0 0 1120 280" fill="none" xmlns="http://www.w3.org/2000/svg">
<mask id="mask0_47_206" style="mask-type:alpha" maskUnits="userSpaceOnUse" x="0" y="0" width="1120" height="280">
<rect width="1120" height="280" rx="16" transform="matrix(-1 0 0 1 1120 0)" fill="#C4C4C4"/>
</mask>
<g mask="url(#mask0_47_206)">
<rect width="1125" height="301" rx="16" transform="matrix(-1 0 0 1 1120 0)" fill="url(#paint0_linear_47_206)"/>
<mask id="mask1_47_206" style="mask-type:alpha" maskUnits="userSpaceOnUse" x="-5" y="0" width="1125" height="301">
<rect width="1125" height="301" rx="16" transform="matrix(-1 0 0 1 1120 0)" fill="#01ACD7"/>
</mask>
<g mask="url(#mask1_47_206)">
<path d="M1139.4 176.72C1023.41 116.543 629.625 46.9899 468.276 23.0062C702.116 91.0329 1031.83 165.819 1139.4 245.401V176.72Z" fill="url(#paint1_linear_47_206)" fill-opacity="0.34"/>
<path d="M1139.4 242.526C1044.35 177.003 736.306 75.7484 574.957 51.7646C827.559 116.949 1061.81 217.602 1139.4 290.456V242.526Z" fill="url(#paint2_linear_47_206)" fill-opacity="0.8"/>
<path d="M103.621 -4.79333C311.164 4.79259 617.629 105.184 862.026 199.388C404.267 69.019 221.94 58.4745 -156.293 21.089C-121.379 21.089 66.5409 -6.50596 103.621 -4.79333Z" fill="url(#paint3_linear_47_206)"/>
</g>
</g>
<defs>
<linearGradient id="paint0_linear_47_206" x1="120.259" y1="-12.4618" x2="431.561" y2="536.809" gradientUnits="userSpaceOnUse">
<stop stop-color="#E04548"/>
<stop offset="1" stop-color="#F85457"/>
</linearGradient>
<linearGradient id="paint1_linear_47_206" x1="481.853" y1="23.0062" x2="907.012" y2="512.359" gradientUnits="userSpaceOnUse">
<stop stop-color="#FFDBDB"/>
<stop offset="1" stop-color="#FF9999" stop-opacity="0"/>
</linearGradient>
<linearGradient id="paint2_linear_47_206" x1="528.405" y1="46.0131" x2="828.819" y2="450.586" gradientUnits="userSpaceOnUse">
<stop stop-color="#FF5F5F" stop-opacity="0.88"/>
<stop offset="1" stop-color="#FF9797" stop-opacity="0"/>
</linearGradient>
<linearGradient id="paint3_linear_47_206" x1="863.965" y1="199.388" x2="412.182" y2="-322.347" gradientUnits="userSpaceOnUse">
<stop stop-color="#FF6565"/>
<stop offset="1" stop-color="#FFA3A3" stop-opacity="0"/>
</linearGradient>
</defs>
</svg>
