<svg width="293" height="190" viewBox="0 0 293 190" fill="none" xmlns="http://www.w3.org/2000/svg">
<g opacity="0.3">
<mask id="mask0_59_2357" style="mask-type:alpha" maskUnits="userSpaceOnUse" x="5" y="0" width="280" height="190">
<rect x="5" width="280" height="190" rx="16" fill="#01ACD7"/>
</mask>
<g mask="url(#mask0_59_2357)">
<path d="M0.172363 120.635C29.0396 87.0473 127.049 48.2271 167.207 34.8408C109.007 72.8092 26.9444 114.55 0.172363 158.968V120.635Z" fill="url(#paint0_linear_59_2357)" fill-opacity="0.34"/>
<path d="M0.172363 157.363C23.8275 120.792 100.497 64.278 140.655 50.8917C77.7851 87.2739 19.4827 143.452 0.172363 184.115V157.363Z" fill="url(#paint1_linear_59_2357)" fill-opacity="0.8"/>
<path d="M257.966 19.3248C206.31 24.6751 130.035 80.7077 69.207 133.287C183.138 60.5224 228.517 54.6371 322.655 33.7708C313.966 33.7708 267.194 18.369 257.966 19.3248Z" fill="url(#paint2_linear_59_2357)"/>
</g>
</g>
<defs>
<linearGradient id="paint0_linear_59_2357" x1="163.828" y1="34.8408" x2="-30.8813" y2="134.776" gradientUnits="userSpaceOnUse">
<stop stop-color="#724AC0"/>
<stop offset="1" stop-color="#724AC0" stop-opacity="0.04"/>
</linearGradient>
<linearGradient id="paint1_linear_59_2357" x1="152.241" y1="47.6815" x2="-2.37342" y2="140.533" gradientUnits="userSpaceOnUse">
<stop stop-color="#28006E"/>
<stop offset="1" stop-color="#724AC0" stop-opacity="0"/>
</linearGradient>
<linearGradient id="paint2_linear_59_2357" x1="68.7243" y1="133.287" x2="276.126" y2="26.4808" gradientUnits="userSpaceOnUse">
<stop stop-color="#5628B4"/>
<stop offset="1" stop-color="#724AC0" stop-opacity="0"/>
</linearGradient>
</defs>
</svg>
