<svg width="293" height="170" viewBox="0 0 293 170" fill="none" xmlns="http://www.w3.org/2000/svg">
<g opacity="0.3">
<mask id="mask0_59_2375" style="mask-type:alpha" maskUnits="userSpaceOnUse" x="5" y="0" width="280" height="170">
<rect x="5" width="280" height="170" rx="16" fill="#01ACD7"/>
</mask>
<g mask="url(#mask0_59_2375)">
<path d="M0.172363 105.176C29.0396 73.7883 127.049 37.5098 167.207 25C109.007 60.4824 26.9444 99.4902 0.172363 141V105.176Z" fill="url(#paint0_linear_59_2375)" fill-opacity="0.34"/>
<path d="M0.172363 139.5C23.8275 105.324 100.497 52.5098 140.655 40C77.7851 74 19.4827 126.5 0.172363 164.5V139.5Z" fill="url(#paint1_linear_59_2375)" fill-opacity="0.8"/>
<path d="M257.965 10.5C206.31 15.5 130.034 67.8638 69.2068 117C183.138 49.0001 228.517 43.5002 322.655 24.0001C313.965 24.0001 267.194 9.60671 257.965 10.5Z" fill="url(#paint2_linear_59_2375)"/>
</g>
</g>
<defs>
<linearGradient id="paint0_linear_59_2375" x1="163.828" y1="25" x2="-25.166" y2="128.798" gradientUnits="userSpaceOnUse">
<stop stop-color="#8FD8FA"/>
<stop offset="1" stop-color="#8FD8FA"/>
</linearGradient>
<linearGradient id="paint1_linear_59_2375" x1="152.241" y1="37" x2="3.35032" y2="132.679" gradientUnits="userSpaceOnUse">
<stop stop-color="#6BCDFE"/>
<stop offset="1" stop-color="#8FD8FA" stop-opacity="0.05"/>
</linearGradient>
<linearGradient id="paint2_linear_59_2375" x1="68.724" y1="117" x2="270.007" y2="6.08292" gradientUnits="userSpaceOnUse">
<stop stop-color="#03A4F4"/>
<stop offset="1" stop-color="#8FD8FA" stop-opacity="0.13"/>
</linearGradient>
</defs>
</svg>
