<svg width="46" height="46" viewBox="0 0 46 46" fill="none" xmlns="http://www.w3.org/2000/svg">
<path fill-rule="evenodd" clip-rule="evenodd" d="M23 46C35.7025 46 46 35.7025 46 23C46 10.2975 35.7025 0 23 0C10.2975 0 0 10.2975 0 23C0 35.7025 10.2975 46 23 46ZM23.0767 32.3533C28.2847 32.3533 32.5067 28.1314 32.5067 22.9233C32.5067 17.7153 28.2847 13.4933 23.0767 13.4933C17.8686 13.4933 13.6467 17.7153 13.6467 22.9233C13.6467 28.1314 17.8686 32.3533 23.0767 32.3533Z" fill="url(#paint0_linear_24_744)"/>
<path fill-rule="evenodd" clip-rule="evenodd" d="M46 23.0437C45.9764 35.7262 35.688 46 23 46C10.2975 46 0 35.7025 0 23C0 10.2975 10.2975 0 23 0C35.6885 0 45.9772 10.2746 46 22.9577C45.9772 13.7466 38.5031 6.28666 29.2867 6.28666C20.0562 6.28666 12.5733 13.7695 12.5733 23C12.5733 32.2305 20.0562 39.7133 29.2867 39.7133C38.5026 39.7133 45.9764 32.2541 46 23.0437ZM25.9547 31.9061C25.9301 31.9139 25.9055 31.9217 25.8809 31.9294C25.9055 31.9217 25.9301 31.914 25.9547 31.9061C25.9547 31.9061 25.9547 31.9061 25.9547 31.9061Z" fill="url(#paint1_radial_24_744)"/>
<path fill-rule="evenodd" clip-rule="evenodd" d="M46 23.0437C45.9764 35.7262 35.688 46 23 46C10.2975 46 0 35.7025 0 23C0 10.2975 10.2975 0 23 0C35.6885 0 45.9772 10.2746 46 22.9577C45.9772 13.7466 38.5031 6.28666 29.2867 6.28666C20.0562 6.28666 12.5733 13.7695 12.5733 23C12.5733 32.2305 20.0562 39.7133 29.2867 39.7133C38.5026 39.7133 45.9764 32.2541 46 23.0437ZM25.9547 31.9061C25.9301 31.9139 25.9055 31.9217 25.8809 31.9294C25.9055 31.9217 25.9301 31.914 25.9547 31.9061C25.9547 31.9061 25.9547 31.9061 25.9547 31.9061Z" fill="url(#paint2_radial_24_744)"/>
<path fill-rule="evenodd" clip-rule="evenodd" d="M23 37.1067C31.1296 37.1067 37.72 30.5163 37.72 22.3867C37.72 14.2571 31.1296 7.66669 23 7.66669C14.8704 7.66669 8.28 14.2571 8.28 22.3867C8.28 30.5163 14.8704 37.1067 23 37.1067ZM23.0767 32.0467C28.4541 32.0467 32.8134 27.6875 32.8134 22.31C32.8134 16.9326 28.4541 12.5734 23.0767 12.5734C17.6993 12.5734 13.34 16.9326 13.34 22.31C13.34 27.6875 17.6993 32.0467 23.0767 32.0467Z" fill="url(#paint3_linear_24_744)"/>
<path fill-rule="evenodd" clip-rule="evenodd" d="M23 37.1067C31.1296 37.1067 37.72 30.5163 37.72 22.3867C37.72 14.2571 31.1296 7.66669 23 7.66669C14.8704 7.66669 8.28 14.2571 8.28 22.3867C8.28 30.5163 14.8704 37.1067 23 37.1067ZM23.0767 32.0467C28.4541 32.0467 32.8134 27.6875 32.8134 22.31C32.8134 16.9326 28.4541 12.5734 23.0767 12.5734C17.6993 12.5734 13.34 16.9326 13.34 22.31C13.34 27.6875 17.6993 32.0467 23.0767 32.0467Z" fill="url(#paint4_radial_24_744)"/>
<path fill-rule="evenodd" clip-rule="evenodd" d="M18.065 2.33409L22.081 12.4666C18.9396 12.762 16.2006 14.4409 14.4797 16.8876L10.3171 6.38543C10.123 5.15765 10.0109 4.38559 10.3962 3.75776C12.5165 2.36609 14.8807 1.31543 17.4109 0.68378L17.4124 0.68765L18.3234 0.4599C18.0789 0.851121 18.0153 1.704 18.065 2.33409Z" fill="url(#paint5_linear_24_744)"/>
<path d="M18.63 13.4933L14.7472 3.34611C14.6975 2.71604 14.7426 1.77121 14.9871 1.38L14.2205 1.68667L13.7605 1.87067C13.5061 2.31621 13.4605 3.19556 13.5122 3.91308L17.48 14.03L17.4802 14.0299C17.9912 13.6467 18.0934 13.57 18.63 13.4933Z" fill="url(#paint6_linear_24_744)"/>
<path fill-rule="evenodd" clip-rule="evenodd" d="M28.0893 2.3342L24.0734 12.4665C27.2147 12.762 29.9537 14.4409 31.6746 16.8876L35.8371 6.38568C36.0313 5.15773 36.1434 4.3856 35.758 3.75773C33.6377 2.36609 31.2735 1.31547 28.7435 0.68384L28.7419 0.687713L27.8309 0.459961C28.0754 0.851193 28.139 1.70411 28.0893 2.3342Z" fill="url(#paint7_linear_24_744)"/>
<path d="M27.5243 13.4934L31.407 3.34618C31.4567 2.7161 31.4116 1.77127 31.1671 1.38007L31.9338 1.68673L32.3938 1.87073C32.6481 2.31627 32.6937 3.19562 32.642 3.91314L28.6743 14.0301L28.6741 14.0299C28.1631 13.6467 28.0609 13.5701 27.5243 13.4934Z" fill="url(#paint8_linear_24_744)"/>
<path fill-rule="evenodd" clip-rule="evenodd" d="M23 33.58C28.8432 33.58 33.58 28.8432 33.58 23C33.58 17.1568 28.8432 12.42 23 12.42C17.1569 12.42 12.42 17.1568 12.42 23C12.42 28.8432 17.1569 33.58 23 33.58ZM23 32.0466C27.9963 32.0466 32.0467 27.9963 32.0467 22.9999C32.0467 18.0036 27.9963 13.9533 23 13.9533C18.0037 13.9533 13.9533 18.0036 13.9533 22.9999C13.9533 27.9963 18.0037 32.0466 23 32.0466Z" fill="#FFE896"/>
<path d="M28.3383 21.1135C28.267 20.8931 28.0715 20.7367 27.8402 20.7158L24.698 20.4307L23.4555 17.5242C23.3639 17.3112 23.1552 17.1733 22.9234 17.1733C22.6916 17.1733 22.4829 17.3112 22.3913 17.5247L21.1488 20.4307L18.0061 20.7158C17.7752 20.7372 17.5802 20.8931 17.5085 21.1135C17.4368 21.3338 17.503 21.5754 17.6777 21.7277L20.0528 23.8095L19.3524 26.8928C19.3012 27.1195 19.3892 27.3538 19.5775 27.4898C19.6786 27.5628 19.797 27.6 19.9163 27.6C20.0193 27.6 20.1213 27.5723 20.213 27.5175L22.9234 25.8985L25.6328 27.5175C25.8311 27.6367 26.081 27.6258 26.2688 27.4898C26.4571 27.3534 26.5451 27.119 26.4938 26.8928L25.7935 23.8095L28.1686 21.7281C28.3433 21.5754 28.41 21.3342 28.3383 21.1135Z" fill="url(#paint9_linear_24_744)"/>
<path fill-rule="evenodd" clip-rule="evenodd" d="M20.6546 45.8819C10.4303 42.4397 3.06665 32.7748 3.06665 21.3899C3.06665 14.9141 5.44916 8.99466 9.38547 4.46045C3.69365 8.64727 0 15.3923 0 23C0 34.9108 9.05373 44.7069 20.6546 45.8819Z" fill="url(#paint10_radial_24_744)"/>
<path fill-rule="evenodd" clip-rule="evenodd" d="M20.6546 45.8819C10.4303 42.4397 3.06665 32.7748 3.06665 21.3899C3.06665 14.9141 5.44916 8.99466 9.38547 4.46045C3.69365 8.64727 0 15.3923 0 23C0 34.9108 9.05373 44.7069 20.6546 45.8819Z" fill="url(#paint11_radial_24_744)"/>
<defs>
<linearGradient id="paint0_linear_24_744" x1="46" y1="18.0933" x2="-7.69696e-07" y2="31.97" gradientUnits="userSpaceOnUse">
<stop stop-color="#FAD475"/>
<stop offset="0.71875" stop-color="#FFE5A2"/>
</linearGradient>
<radialGradient id="paint1_radial_24_744" cx="0" cy="0" r="1" gradientUnits="userSpaceOnUse" gradientTransform="translate(23.69 22.08) rotate(0.590655) scale(22.3112)">
<stop offset="0.311476" stop-color="#FFE99D"/>
<stop offset="1" stop-color="#F8BC24"/>
</radialGradient>
<radialGradient id="paint2_radial_24_744" cx="0" cy="0" r="1" gradientUnits="userSpaceOnUse" gradientTransform="translate(34.1933 23) rotate(-178.332) scale(23.7 23.0097)">
<stop offset="0.347648" stop-color="#FCD981"/>
<stop offset="1" stop-color="white" stop-opacity="0"/>
</radialGradient>
<linearGradient id="paint3_linear_24_744" x1="8.28" y1="22.3867" x2="33.58" y2="23.23" gradientUnits="userSpaceOnUse">
<stop offset="0.541667" stop-color="#FFD86F"/>
<stop offset="1" stop-color="#FBDC8C"/>
</linearGradient>
<radialGradient id="paint4_radial_24_744" cx="0" cy="0" r="1" gradientUnits="userSpaceOnUse" gradientTransform="translate(23 22.3867) rotate(44.6506) scale(17.7817 15.7437)">
<stop offset="0.3125" stop-color="#FECD1D"/>
<stop offset="1" stop-color="#FBD980"/>
</radialGradient>
<linearGradient id="paint5_linear_24_744" x1="16.1101" y1="0.4599" x2="16.1101" y2="16.8876" gradientUnits="userSpaceOnUse">
<stop stop-color="#DC1717"/>
<stop offset="0.859375" stop-color="#FF7676" stop-opacity="0.68"/>
</linearGradient>
<linearGradient id="paint6_linear_24_744" x1="16.0616" y1="1.38" x2="16.0616" y2="14.03" gradientUnits="userSpaceOnUse">
<stop stop-color="#E7E7E7"/>
<stop offset="1" stop-color="white"/>
</linearGradient>
<linearGradient id="paint7_linear_24_744" x1="30.0442" y1="0.459961" x2="30.0442" y2="16.8876" gradientUnits="userSpaceOnUse">
<stop stop-color="#DC1717"/>
<stop offset="0.859375" stop-color="#FF7676" stop-opacity="0.68"/>
</linearGradient>
<linearGradient id="paint8_linear_24_744" x1="30.0926" y1="1.38007" x2="30.0926" y2="14.0301" gradientUnits="userSpaceOnUse">
<stop stop-color="#E7E7E7"/>
<stop offset="1" stop-color="white"/>
</linearGradient>
<linearGradient id="paint9_linear_24_744" x1="22.3602" y1="17.1733" x2="26.3603" y2="27.5548" gradientUnits="userSpaceOnUse">
<stop stop-color="#FFC107"/>
<stop offset="1" stop-color="#FFDA6A" stop-opacity="0.37"/>
</linearGradient>
<radialGradient id="paint10_radial_24_744" cx="0" cy="0" r="1" gradientUnits="userSpaceOnUse" gradientTransform="translate(23.6901 22.0801) rotate(0.590651) scale(22.3113)">
<stop offset="0.311476" stop-color="#FFE99D"/>
<stop offset="1" stop-color="#FFA505"/>
</radialGradient>
<radialGradient id="paint11_radial_24_744" cx="0" cy="0" r="1" gradientUnits="userSpaceOnUse" gradientTransform="translate(24.5335 21.4668) rotate(87.2583) scale(27.2478 26.4544)">
<stop offset="0.347648" stop-color="#FCD981"/>
<stop offset="1" stop-color="white" stop-opacity="0"/>
</radialGradient>
</defs>
</svg>
