<svg width="131" height="29" viewBox="0 0 131 29" fill="none" xmlns="http://www.w3.org/2000/svg">
<path d="M19.6582 11.9785C19.6582 13.5189 19.4668 14.9225 19.084 16.1895C18.7012 17.4473 18.1178 18.5319 17.334 19.4434C16.5592 20.3548 15.5749 21.0566 14.3809 21.5488C13.1868 22.0319 11.7741 22.2734 10.1426 22.2734C8.51107 22.2734 7.09831 22.0319 5.9043 21.5488C4.71029 21.0566 3.72135 20.3548 2.9375 19.4434C2.16276 18.5319 1.58398 17.4427 1.20117 16.1758C0.818359 14.9089 0.626953 13.5007 0.626953 11.9512C0.626953 9.88216 0.964193 8.08203 1.63867 6.55078C2.32227 5.01042 3.37044 3.81641 4.7832 2.96875C6.19596 2.12109 7.99154 1.69727 10.1699 1.69727C12.3392 1.69727 14.1211 2.12109 15.5156 2.96875C16.9193 3.81641 17.9583 5.01042 18.6328 6.55078C19.3164 8.09115 19.6582 9.90039 19.6582 11.9785ZM5.07031 11.9785C5.07031 13.373 5.24349 14.5762 5.58984 15.5879C5.94531 16.5905 6.49674 17.3652 7.24414 17.9121C7.99154 18.4499 8.95768 18.7188 10.1426 18.7188C11.3457 18.7188 12.321 18.4499 13.0684 17.9121C13.8158 17.3652 14.3581 16.5905 14.6953 15.5879C15.0417 14.5762 15.2148 13.373 15.2148 11.9785C15.2148 9.88216 14.8229 8.23242 14.0391 7.0293C13.2552 5.82617 11.9655 5.22461 10.1699 5.22461C8.97591 5.22461 8.00065 5.49805 7.24414 6.04492C6.49674 6.58268 5.94531 7.35742 5.58984 8.36914C5.24349 9.37174 5.07031 10.5749 5.07031 11.9785ZM29.6797 22.2734C28.1667 22.2734 26.877 22 25.8105 21.4531C24.7441 20.8971 23.9329 20.0404 23.377 18.8828C22.821 17.7253 22.543 16.2441 22.543 14.4395C22.543 12.571 22.8574 11.0488 23.4863 9.87305C24.1243 8.68815 25.0039 7.81771 26.125 7.26172C27.2552 6.70573 28.5632 6.42773 30.0488 6.42773C31.1061 6.42773 32.0176 6.53255 32.7832 6.74219C33.5579 6.94271 34.2324 7.18424 34.8066 7.4668L33.5762 10.6934C32.9199 10.429 32.3092 10.2148 31.7441 10.0508C31.179 9.8776 30.6139 9.79102 30.0488 9.79102C29.3197 9.79102 28.7135 9.96419 28.2305 10.3105C27.7474 10.6478 27.3874 11.1582 27.1504 11.8418C26.9134 12.5254 26.7949 13.3822 26.7949 14.4121C26.7949 15.4238 26.9225 16.2624 27.1777 16.9277C27.4329 17.5931 27.8021 18.0898 28.2852 18.418C28.7682 18.737 29.3561 18.8965 30.0488 18.8965C30.9147 18.8965 31.6849 18.7826 32.3594 18.5547C33.0339 18.3177 33.6901 17.9896 34.3281 17.5703V21.1387C33.6901 21.5397 33.0202 21.8268 32.3184 22C31.6257 22.1823 30.7461 22.2734 29.6797 22.2734ZM44.1445 6.40039C46.1953 6.40039 47.7676 6.84701 48.8613 7.74023C49.9551 8.63346 50.502 9.99154 50.502 11.8145V22H47.5898L46.7832 19.9219H46.6738C46.2363 20.4688 45.7897 20.9154 45.334 21.2617C44.8783 21.6081 44.3542 21.8633 43.7617 22.0273C43.1693 22.1914 42.4492 22.2734 41.6016 22.2734C40.6992 22.2734 39.888 22.1003 39.168 21.7539C38.457 21.4076 37.8965 20.8789 37.4863 20.168C37.0762 19.4479 36.8711 18.5365 36.8711 17.4336C36.8711 15.8112 37.4408 14.6172 38.5801 13.8516C39.7194 13.0768 41.4284 12.6484 43.707 12.5664L46.3594 12.4844V11.8145C46.3594 11.0124 46.1497 10.4245 45.7305 10.0508C45.3112 9.67708 44.7279 9.49023 43.9805 9.49023C43.2422 9.49023 42.5176 9.59505 41.8066 9.80469C41.0957 10.0143 40.3848 10.2786 39.6738 10.5977L38.293 7.78125C39.1042 7.35286 40.0111 7.01562 41.0137 6.76953C42.0254 6.52344 43.069 6.40039 44.1445 6.40039ZM46.3594 14.918L44.7461 14.9727C43.3971 15.0091 42.4583 15.2507 41.9297 15.6973C41.4102 16.1439 41.1504 16.7318 41.1504 17.4609C41.1504 18.099 41.3372 18.5547 41.7109 18.8281C42.0846 19.0924 42.5723 19.2246 43.1738 19.2246C44.0671 19.2246 44.819 18.9603 45.4297 18.4316C46.0495 17.903 46.3594 17.151 46.3594 16.1758V14.918ZM59.6484 22.2734C57.944 22.2734 56.554 21.6081 55.4785 20.2773C54.4121 18.9375 53.8789 16.9733 53.8789 14.3848C53.8789 11.7689 54.4212 9.79102 55.5059 8.45117C56.5905 7.10221 58.0078 6.42773 59.7578 6.42773C60.487 6.42773 61.1296 6.52799 61.6855 6.72852C62.2415 6.92904 62.7201 7.19792 63.1211 7.53516C63.5312 7.8724 63.8776 8.25065 64.1602 8.66992H64.2969C64.2422 8.37826 64.1738 7.94987 64.0918 7.38477C64.0189 6.81055 63.9824 6.22266 63.9824 5.62109V0.726562H68.166V22H64.9668L64.1602 20.0176H63.9824C63.7181 20.4368 63.3854 20.8197 62.9844 21.166C62.5924 21.5033 62.123 21.7721 61.5762 21.9727C61.0293 22.1732 60.3867 22.2734 59.6484 22.2734ZM61.1113 18.9512C62.2507 18.9512 63.0527 18.6139 63.5176 17.9395C63.9915 17.2559 64.2422 16.2305 64.2695 14.8633V14.4121C64.2695 12.9264 64.0417 11.7917 63.5859 11.0078C63.1302 10.2148 62.2826 9.81836 61.043 9.81836C60.1224 9.81836 59.4023 10.2148 58.8828 11.0078C58.3633 11.8008 58.1035 12.9447 58.1035 14.4395C58.1035 15.9342 58.3633 17.0599 58.8828 17.8164C59.4115 18.5729 60.1543 18.9512 61.1113 18.9512ZM78.8301 6.42773C80.2428 6.42773 81.4596 6.70117 82.4805 7.24805C83.5013 7.78581 84.2897 8.56966 84.8457 9.59961C85.4017 10.6296 85.6797 11.8874 85.6797 13.373V15.3965H75.8223C75.8678 16.5723 76.2188 17.4974 76.875 18.1719C77.5404 18.8372 78.4609 19.1699 79.6367 19.1699C80.612 19.1699 81.5052 19.0697 82.3164 18.8691C83.1276 18.6686 83.9616 18.3678 84.8184 17.9668V21.1934C84.0618 21.5671 83.2689 21.8405 82.4395 22.0137C81.6191 22.1868 80.6211 22.2734 79.4453 22.2734C77.9141 22.2734 76.556 21.9909 75.3711 21.4258C74.1953 20.8607 73.2702 19.9993 72.5957 18.8418C71.9303 17.6842 71.5977 16.2259 71.5977 14.4668C71.5977 12.6803 71.8984 11.1947 72.5 10.0098C73.1107 8.81576 73.9583 7.92253 75.043 7.33008C76.1276 6.72852 77.39 6.42773 78.8301 6.42773ZM78.8574 9.39453C78.0462 9.39453 77.3717 9.6543 76.834 10.1738C76.3053 10.6934 76 11.5091 75.918 12.6211H81.7695C81.7604 12.0013 81.6465 11.4499 81.4277 10.9668C81.2181 10.4837 80.8991 10.1009 80.4707 9.81836C80.0514 9.53581 79.5137 9.39453 78.8574 9.39453ZM107.021 6.42773C108.753 6.42773 110.061 6.87435 110.945 7.76758C111.839 8.65169 112.285 10.0736 112.285 12.0332V22H108.102V13.0723C108.102 11.9785 107.915 11.1536 107.541 10.5977C107.167 10.0417 106.589 9.76367 105.805 9.76367C104.702 9.76367 103.918 10.1602 103.453 10.9531C102.988 11.737 102.756 12.8626 102.756 14.3301V22H98.5859V13.0723C98.5859 12.3431 98.5039 11.7324 98.3398 11.2402C98.1758 10.748 97.9251 10.3789 97.5879 10.1328C97.2507 9.88672 96.8177 9.76367 96.2891 9.76367C95.5143 9.76367 94.9036 9.95964 94.457 10.3516C94.0195 10.7344 93.7051 11.304 93.5137 12.0605C93.3314 12.8079 93.2402 13.724 93.2402 14.8086V22H89.0703V6.71484H92.2559L92.8164 8.66992H93.0488C93.3587 8.14128 93.7461 7.71289 94.2109 7.38477C94.6849 7.05664 95.2044 6.8151 95.7695 6.66016C96.3346 6.50521 96.9089 6.42773 97.4922 6.42773C98.6133 6.42773 99.5612 6.61003 100.336 6.97461C101.12 7.33919 101.721 7.9043 102.141 8.66992H102.51C102.965 7.88607 103.608 7.31641 104.438 6.96094C105.276 6.60547 106.137 6.42773 107.021 6.42773ZM114.391 6.71484H118.957L121.842 15.3145C121.933 15.5879 122.01 15.8659 122.074 16.1484C122.138 16.431 122.193 16.7227 122.238 17.0234C122.284 17.3242 122.32 17.6387 122.348 17.9668H122.43C122.484 17.4746 122.557 17.0143 122.648 16.5859C122.749 16.1576 122.872 15.7337 123.018 15.3145L125.848 6.71484H130.318L123.852 23.9551C123.46 25.0124 122.949 25.8919 122.32 26.5938C121.691 27.3047 120.967 27.8379 120.146 28.1934C119.335 28.5488 118.442 28.7266 117.467 28.7266C116.993 28.7266 116.583 28.6992 116.236 28.6445C115.89 28.599 115.594 28.5488 115.348 28.4941V25.1855C115.539 25.2311 115.781 25.2721 116.072 25.3086C116.364 25.3451 116.669 25.3633 116.988 25.3633C117.572 25.3633 118.073 25.2402 118.492 24.9941C118.911 24.748 119.262 24.4154 119.545 23.9961C119.827 23.5859 120.051 23.1348 120.215 22.6426L120.461 21.8906L114.391 6.71484Z" fill="#FF6B00"/>
</svg>
