<svg width="680" height="967" viewBox="0 0 680 967" fill="none" xmlns="http://www.w3.org/2000/svg">
<path fill-rule="evenodd" clip-rule="evenodd" d="M356.468 778.314C175.973 882.522 -54.8238 820.68 -159.032 640.186C-263.241 459.692 -201.399 228.895 -20.9045 124.686C159.59 20.4777 390.387 82.3196 494.596 262.814C598.804 443.308 536.962 674.105 356.468 778.314ZM313.16 760.549C157.76 850.269 -40.9478 797.025 -130.668 641.626C-220.387 486.226 -167.144 287.518 -11.7445 197.798C143.655 108.079 342.363 161.322 432.083 316.722C521.803 472.121 468.559 670.829 313.16 760.549Z" fill="url(#paint0_radial_48_1213)"/>
<path fill-rule="evenodd" clip-rule="evenodd" d="M-237.177 589.068C-279.606 430.721 -185.636 267.961 -27.2895 225.532C131.057 183.103 293.818 277.073 336.247 435.42C378.676 593.766 284.706 756.527 126.359 798.956C-31.9877 841.385 -194.748 747.415 -237.177 589.068ZM-189.171 560.761C-225.203 426.286 -145.399 288.062 -10.924 252.029C123.551 215.997 261.775 295.8 297.808 430.276C333.841 564.751 254.037 702.975 119.562 739.008C-14.9139 775.04 -153.138 695.237 -189.171 560.761Z" fill="url(#paint1_radial_48_1213)"/>
<path fill-rule="evenodd" clip-rule="evenodd" d="M191.982 523.096C121.96 644.377 -33.1209 685.93 -154.402 615.909C-275.682 545.887 -317.236 390.806 -247.215 269.526C-177.193 148.245 -22.1122 106.691 99.1686 176.712C220.449 246.734 262.003 401.815 191.982 523.096ZM145.884 511.195C86.4187 614.192 -45.2833 649.482 -148.281 590.016C-251.278 530.551 -286.567 398.849 -227.102 295.851C-167.636 192.854 -35.9342 157.565 67.063 217.03C170.06 276.496 205.35 408.198 145.884 511.195Z" fill="url(#paint2_radial_48_1213)"/>
<defs>
<radialGradient id="paint0_radial_48_1213" cx="0" cy="0" r="1" gradientUnits="userSpaceOnUse" gradientTransform="translate(300.407 235.014) rotate(37.875) scale(296.459 364.431)">
<stop stop-color="#FC8100" stop-opacity="0"/>
<stop offset="1" stop-color="#FC8100"/>
</radialGradient>
<radialGradient id="paint1_radial_48_1213" cx="0" cy="0" r="1" gradientUnits="userSpaceOnUse" gradientTransform="translate(306.907 389.396) rotate(116.328) scale(351.753 226.663)">
<stop stop-color="#F5A128"/>
<stop offset="1" stop-color="#F5A128" stop-opacity="0"/>
</radialGradient>
<radialGradient id="paint2_radial_48_1213" cx="0" cy="0" r="1" gradientUnits="userSpaceOnUse" gradientTransform="translate(202.902 447.899) rotate(-130.569) scale(312.34 312.523)">
<stop stop-color="#F7B33B"/>
<stop offset="1" stop-color="#F7B33B" stop-opacity="0"/>
</radialGradient>
</defs>
</svg>
