<?xml version="1.0" standalone="no"?>
<!DOCTYPE svg PUBLIC "-//W3C//DTD SVG 20010904//EN"
 "http://www.w3.org/TR/2001/REC-SVG-20010904/DTD/svg10.dtd">
<svg version="1.0" xmlns="http://www.w3.org/2000/svg"
 width="500.000000pt" height="500.000000pt" viewBox="0 0 500.000000 500.000000"
 preserveAspectRatio="xMidYMid meet">

<g transform="translate(0.000000,500.000000) scale(0.100000,-0.100000)"
fill="#000000" stroke="none">
<path d="M2270 4891 c0 -4 -21 -11 -47 -14 -26 -3 -49 -10 -51 -16 -2 -6 -19
-11 -37 -11 -18 0 -35 -3 -37 -7 -4 -11 -67 -43 -84 -43 -8 0 -14 -4 -14 -9 0
-5 -11 -12 -25 -15 -14 -4 -25 -11 -25 -16 0 -6 -8 -10 -18 -10 -17 0 -182
-149 -182 -164 0 -4 -6 -14 -12 -21 -22 -24 -32 -39 -52 -75 -20 -37 -22 -40
-51 -105 -9 -22 -21 -48 -26 -57 -5 -10 -9 -31 -9 -47 0 -16 -5 -31 -11 -33
-6 -2 -13 -25 -16 -51 -3 -26 -10 -47 -14 -47 -5 0 -9 -27 -9 -61 0 -33 -6
-70 -12 -82 -9 -15 -15 -123 -20 -357 -9 -380 -16 -510 -29 -526 -4 -5 -11
-36 -15 -67 -4 -31 -11 -57 -15 -57 -5 0 -9 -16 -9 -35 0 -19 -4 -35 -9 -35
-5 0 -12 -13 -16 -30 -4 -16 -11 -32 -16 -35 -5 -4 -9 -15 -9 -26 0 -10 -4
-19 -9 -19 -5 0 -13 -9 -16 -21 -16 -48 -115 -145 -156 -151 -12 -2 -27 -11
-33 -20 -8 -14 -4 -23 24 -47 19 -17 39 -31 43 -31 4 0 18 -11 31 -25 13 -14
33 -25 45 -25 11 0 21 -4 21 -10 0 -5 11 -12 25 -16 14 -3 25 -10 25 -15 0 -5
8 -9 18 -9 20 -1 119 -34 129 -44 3 -3 23 -6 43 -6 20 0 41 -5 47 -11 13 -13
139 -29 281 -36 l102 -4 0 -162 c0 -124 4 -169 15 -191 8 -15 15 -44 15 -62 0
-19 5 -34 10 -34 6 0 10 -10 10 -22 0 -13 7 -36 15 -52 8 -15 15 -44 15 -62 0
-19 5 -34 10 -34 6 0 10 -12 10 -27 1 -16 7 -39 15 -53 8 -14 14 -39 15 -57 0
-17 5 -35 10 -38 6 -3 10 -16 10 -28 0 -12 7 -35 15 -51 8 -15 15 -44 15 -62
0 -19 5 -34 10 -34 6 0 10 -10 10 -22 0 -13 7 -36 15 -52 8 -15 15 -39 15 -52
0 -13 4 -32 9 -42 6 -9 13 -34 16 -54 3 -21 10 -38 15 -38 6 0 10 -18 10 -39
0 -22 5 -43 10 -46 6 -3 10 -16 10 -28 0 -12 7 -35 15 -51 8 -15 15 -41 15
-57 0 -16 4 -29 9 -29 4 0 11 -21 14 -47 3 -26 10 -49 16 -51 6 -2 11 -17 11
-33 0 -16 4 -37 9 -47 6 -9 13 -34 16 -55 3 -20 10 -37 15 -37 6 0 10 -18 10
-40 0 -22 5 -40 10 -40 6 0 10 -16 10 -35 0 -19 -4 -35 -10 -35 -5 0 -10 8
-10 19 0 10 -11 30 -25 45 -14 15 -25 30 -25 34 0 4 -11 19 -25 34 -14 15 -25
32 -25 38 0 5 -4 10 -9 10 -5 0 -12 11 -15 25 -4 14 -11 25 -16 25 -6 0 -10 5
-10 10 0 10 -8 22 -37 55 -7 7 -13 18 -13 24 0 6 -3 11 -8 11 -4 0 -16 16 -26
35 -11 19 -22 35 -26 35 -5 0 -11 11 -14 25 -4 14 -11 25 -16 25 -6 0 -10 5
-10 11 0 6 -6 17 -12 24 -30 33 -38 45 -38 55 0 5 -4 10 -9 10 -5 0 -12 11
-15 25 -4 14 -11 25 -16 25 -6 0 -10 5 -10 11 0 6 -6 17 -12 24 -30 33 -38 45
-38 55 0 5 -4 10 -8 10 -4 0 -21 23 -37 50 -16 28 -32 50 -36 50 -4 0 -11 10
-15 23 -4 12 -17 32 -30 44 -13 12 -24 29 -24 37 0 22 -38 28 -95 15 -27 -6
-81 -13 -120 -16 -38 -3 -74 -9 -79 -14 -13 -12 -76 -12 -76 1 0 6 5 10 10 10
6 0 10 11 10 25 0 14 4 25 10 25 5 0 12 16 16 35 3 19 10 35 15 35 5 0 9 10 9
23 0 12 7 31 15 41 8 11 15 30 15 43 0 13 5 23 10 23 6 0 10 9 10 21 0 11 7
27 15 35 8 9 15 26 15 40 0 13 5 24 10 24 6 0 10 10 10 23 0 12 7 31 15 41 8
11 15 30 15 43 0 13 5 23 10 23 6 0 10 11 10 25 0 14 4 25 10 25 5 0 12 16 16
35 3 19 10 35 15 35 5 0 9 11 9 24 0 14 5 28 10 31 6 3 10 15 10 26 0 10 -4
19 -10 19 -5 0 -10 -4 -10 -10 0 -5 -7 -10 -15 -10 -8 0 -15 -4 -15 -9 0 -5
-11 -12 -25 -15 -14 -4 -25 -11 -25 -16 0 -6 -11 -10 -25 -10 -14 0 -25 -4
-25 -10 0 -5 -8 -10 -18 -10 -10 0 -27 -7 -38 -15 -10 -8 -29 -15 -41 -15 -13
0 -23 -4 -23 -9 0 -5 -20 -12 -45 -15 -24 -4 -47 -11 -50 -17 -4 -5 -22 -9
-41 -9 -19 0 -34 -4 -34 -10 0 -5 -12 -10 -27 -10 -16 0 -41 -7 -57 -15 -15
-8 -39 -15 -52 -15 -13 0 -24 -4 -24 -10 0 -5 -11 -10 -24 -10 -14 0 -31 -7
-40 -15 -8 -8 -24 -15 -35 -15 -12 0 -21 -4 -21 -10 0 -5 -11 -10 -24 -10 -14
0 -31 -7 -40 -15 -8 -8 -24 -15 -35 -15 -12 0 -21 -4 -21 -9 0 -5 -11 -12 -25
-15 -14 -4 -25 -11 -25 -16 0 -6 -5 -10 -11 -10 -14 0 -119 -105 -119 -119 0
-6 -4 -11 -10 -11 -5 0 -12 -11 -16 -25 -3 -14 -10 -25 -15 -25 -5 0 -9 -10
-9 -22 -1 -13 -7 -34 -15 -48 -11 -20 -14 -76 -15 -269 l0 -243 45 -44 c24
-24 47 -44 50 -44 4 0 13 -6 20 -12 33 -30 45 -38 55 -38 5 0 10 -4 10 -10 0
-5 11 -12 25 -16 14 -3 25 -10 25 -15 0 -5 9 -9 19 -9 11 0 23 -4 26 -10 3 -5
23 -17 43 -26 77 -34 107 -49 110 -56 2 -5 11 -8 20 -8 19 0 107 -32 118 -43
4 -4 20 -7 35 -7 15 0 30 -4 34 -9 3 -6 26 -13 50 -17 25 -3 45 -10 45 -15 0
-5 15 -9 34 -9 18 0 50 -7 69 -15 20 -8 50 -15 67 -15 16 0 30 -4 30 -10 0 -5
21 -10 46 -10 25 0 54 -5 65 -10 19 -11 89 -23 224 -40 39 -5 95 -13 125 -19
30 -5 85 -10 123 -10 37 -1 67 -5 67 -11 0 -6 45 -10 115 -10 70 0 115 4 115
10 0 6 9 10 20 10 11 0 20 -4 20 -10 0 -6 45 -10 115 -10 63 0 115 4 115 8 0
5 50 12 111 15 61 4 117 11 123 16 6 5 43 11 81 14 96 7 201 24 224 37 11 5
40 10 65 10 25 0 46 4 46 9 0 4 23 11 52 14 28 4 56 11 62 17 5 5 27 10 48 10
21 0 38 4 38 9 0 5 20 12 45 15 24 4 47 11 50 17 4 5 22 9 41 9 19 0 34 3 34
8 0 8 59 30 103 39 15 3 27 9 27 14 0 5 6 9 12 9 12 0 106 42 138 61 8 5 23
12 33 15 9 4 17 10 17 14 0 4 11 11 25 14 14 4 25 11 25 16 0 6 5 10 11 10 6
0 17 6 24 12 30 27 44 38 50 38 3 0 26 20 50 44 l45 44 0 243 c-1 193 -4 249
-15 269 -8 14 -14 35 -15 48 0 12 -4 22 -9 22 -5 0 -12 11 -15 25 -4 14 -11
25 -16 25 -6 0 -10 5 -10 11 0 6 -24 35 -54 65 -30 30 -59 54 -65 54 -6 0 -11
4 -11 10 0 5 -11 12 -25 16 -14 3 -25 10 -25 15 0 5 -9 9 -21 9 -11 0 -27 7
-35 15 -9 8 -26 15 -40 15 -13 0 -24 5 -24 10 0 6 -9 10 -21 10 -11 0 -27 7
-35 15 -9 8 -26 15 -40 15 -13 0 -24 5 -24 10 0 6 -11 10 -24 10 -13 0 -37 7
-52 15 -16 8 -41 15 -56 15 -16 0 -28 5 -28 10 0 6 -15 10 -34 10 -19 0 -37 4
-41 9 -3 6 -26 13 -50 17 -25 3 -45 10 -45 15 0 5 -11 9 -25 9 -14 0 -25 4
-25 10 0 5 -16 12 -35 16 -19 3 -35 10 -35 15 0 5 -11 9 -25 9 -14 0 -25 4
-25 10 0 5 -11 12 -25 16 -14 3 -25 10 -25 15 0 5 -7 9 -15 9 -8 0 -15 5 -15
10 0 6 -4 10 -10 10 -5 0 -10 -9 -10 -19 0 -11 5 -23 10 -26 6 -3 10 -17 10
-31 0 -13 4 -24 9 -24 5 0 12 -16 15 -35 4 -19 11 -35 16 -35 6 0 10 -9 10
-20 0 -20 2 -27 33 -88 9 -19 17 -42 17 -53 0 -10 5 -19 10 -19 6 0 10 -11 10
-24 0 -14 7 -31 15 -40 8 -8 15 -22 15 -30 0 -16 3 -23 33 -84 9 -19 17 -42
17 -53 0 -10 4 -19 9 -19 5 0 12 -16 15 -35 4 -19 11 -35 16 -35 6 0 10 -10
10 -23 0 -13 5 -28 12 -35 9 -9 4 -12 -23 -12 -19 0 -39 4 -45 9 -5 5 -40 11
-79 14 -38 3 -92 10 -120 16 -57 13 -95 7 -95 -15 0 -8 -11 -25 -24 -37 -13
-12 -26 -32 -30 -44 -4 -13 -11 -23 -15 -23 -4 0 -20 -22 -36 -50 -16 -27 -33
-50 -37 -50 -4 0 -8 -5 -8 -11 0 -6 -6 -17 -12 -24 -30 -33 -38 -45 -38 -55 0
-5 -4 -10 -10 -10 -5 0 -12 -11 -16 -25 -3 -14 -10 -25 -15 -25 -5 0 -9 -5 -9
-11 0 -6 -6 -17 -12 -24 -30 -33 -38 -45 -38 -55 0 -5 -4 -10 -10 -10 -5 0
-12 -11 -16 -25 -3 -14 -9 -25 -14 -25 -4 0 -15 -16 -26 -35 -10 -19 -22 -35
-26 -35 -5 0 -8 -5 -8 -11 0 -6 -6 -17 -12 -24 -30 -33 -38 -45 -38 -55 0 -5
-4 -10 -10 -10 -5 0 -12 -11 -16 -25 -3 -14 -10 -25 -15 -25 -5 0 -9 -4 -9 -9
0 -6 -11 -22 -25 -37 -14 -15 -25 -31 -25 -36 0 -5 -11 -19 -25 -32 -14 -13
-25 -33 -25 -45 0 -11 -4 -21 -10 -21 -5 0 -10 11 -10 25 0 14 5 25 10 25 6 0
10 18 10 40 0 22 4 40 9 40 6 0 13 20 17 45 3 25 10 45 15 45 5 0 9 13 9 29 0
16 7 42 15 57 8 16 15 39 15 52 0 12 5 22 10 22 6 0 10 15 10 33 0 17 7 41 15
51 8 11 15 35 15 53 0 18 5 33 10 33 6 0 10 16 10 35 0 19 4 35 10 35 5 0 13
18 16 40 4 22 10 40 15 40 5 0 9 18 9 40 0 22 4 40 9 40 6 0 13 20 17 45 3 25
10 45 15 45 5 0 9 12 9 28 1 15 7 38 15 52 8 14 14 37 15 53 0 15 5 27 10 27
6 0 10 16 10 35 0 19 4 35 10 35 5 0 13 18 16 40 4 22 11 43 15 46 5 3 9 18 9
33 0 16 7 42 15 57 8 16 15 39 15 52 0 12 5 22 10 22 6 0 10 13 10 29 0 16 7
42 15 57 8 16 15 39 15 51 0 12 5 25 10 28 6 3 10 19 10 35 0 16 5 32 10 35 6
4 10 68 10 160 l0 153 53 5 c28 3 100 10 159 15 59 6 113 14 120 18 7 5 33 11
58 15 78 13 140 30 140 40 0 5 10 9 22 9 26 0 98 31 98 42 0 4 11 8 25 8 14 0
25 5 25 10 0 6 7 10 15 10 8 0 15 7 15 15 0 8 8 15 18 15 9 0 32 14 51 31 l33
31 -21 19 c-11 10 -25 19 -31 19 -6 0 -21 11 -34 25 -13 14 -26 25 -30 25 -8
0 -36 26 -36 34 0 2 -16 21 -35 42 -19 20 -35 41 -35 47 0 6 -6 18 -13 26 -7
9 -22 43 -32 76 -11 33 -23 64 -27 69 -4 6 -8 32 -8 58 0 26 -4 48 -10 48 -6
0 -10 71 -10 194 0 119 4 197 10 201 6 4 10 97 10 246 0 153 -4 239 -10 239
-5 0 -10 24 -10 53 0 28 -5 70 -11 92 -6 22 -13 59 -16 83 -3 23 -8 42 -13 42
-4 0 -10 18 -14 40 -3 22 -11 40 -16 40 -6 0 -10 11 -10 24 0 25 -29 88 -42
94 -5 2 -8 10 -8 18 0 8 -4 14 -9 14 -5 0 -12 9 -16 20 -8 24 -128 150 -144
150 -6 0 -11 4 -11 10 0 5 -11 12 -25 16 -14 3 -25 10 -25 15 0 5 -12 9 -27 9
-16 0 -37 7 -47 15 -14 11 -47 15 -118 15 -59 0 -98 4 -98 10 0 6 -5 10 -11
10 -6 0 -17 6 -24 13 -33 29 -45 37 -55 37 -5 0 -10 4 -10 10 0 5 -11 12 -25
16 -14 3 -25 10 -25 15 0 5 -11 9 -25 9 -14 0 -25 4 -25 10 0 5 -18 13 -40 16
-22 4 -40 10 -40 15 0 5 -74 9 -165 9 -91 0 -165 -4 -165 -9z"/>
</g>
</svg>
