<?xml version="1.0" standalone="no"?>
<!DOCTYPE svg PUBLIC "-//W3C//DTD SVG 20010904//EN"
 "http://www.w3.org/TR/2001/REC-SVG-20010904/DTD/svg10.dtd">
<svg version="1.0" xmlns="http://www.w3.org/2000/svg"
 width="225.000000pt" height="225.000000pt" viewBox="0 0 225.000000 225.000000"
 preserveAspectRatio="xMidYMid meet">

<g transform="translate(0.000000,225.000000) scale(0.100000,-0.100000)"
fill="#000000" stroke="none">
<path d="M1465 1899 c-71 -29 -180 -34 -394 -19 -185 12 -187 12 -239 -10 -88
-38 -152 -126 -154 -214 -1 -22 -10 -68 -20 -101 -20 -61 -20 -82 4 -207 6
-32 14 -58 18 -58 4 0 10 30 13 68 4 37 14 91 22 120 l16 52 42 -24 c87 -51
261 -103 377 -112 101 -8 204 14 303 66 43 22 80 40 81 40 7 0 27 -110 29
-153 1 -26 6 -47 12 -48 16 0 35 110 33 188 l-2 72 72 74 c58 60 72 81 72 106
0 36 -3 37 -44 12 -37 -23 -101 -37 -110 -23 -3 5 4 18 15 28 23 21 49 66 49
85 0 7 -7 8 -17 4 -45 -17 -134 -36 -144 -30 -7 5 -4 15 9 29 19 21 42 59 42
70 0 11 -36 5 -85 -15z"/>
<path d="M715 681 c-139 -49 -267 -122 -364 -207 l-43 -39 69 -66 c186 -176
440 -293 678 -314 290 -25 615 98 829 314 l68 69 -80 64 c-96 76 -205 135
-325 177 -108 38 -120 38 -138 5 -23 -45 -107 -112 -167 -134 -136 -52 -308 2
-386 120 -14 22 -34 40 -44 39 -9 0 -53 -13 -97 -28z"/>
</g>
</svg>
