<svg width="1440" height="584" viewBox="0 0 1440 584" fill="none" xmlns="http://www.w3.org/2000/svg">
<rect width="1440" height="547" transform="matrix(1 0 0 -1 0 561)" fill="url(#paint0_linear_47_284)"/>
<mask id="mask0_47_284" style="mask-type:alpha" maskUnits="userSpaceOnUse" x="0" y="14" width="1440" height="547">
<rect x="1439.29" y="560.288" width="1438.58" height="545.575" transform="rotate(180 1439.29 560.288)" fill="#DA879A" stroke="url(#paint1_linear_47_284)" stroke-width="1.42463"/>
</mask>
<g mask="url(#mask0_47_284)">
<path d="M-127 68.5C-127 -104.583 17.7766 -245 196.5 -245C375.223 -245 520 -104.583 520 68.5C520 241.583 375.223 382 196.5 382C17.7766 382 -127 241.583 -127 68.5Z" stroke="url(#paint2_linear_47_284)" stroke-opacity="0.36" stroke-width="4"/>
<path d="M1675.39 347.244C1749.5 446.579 1710.78 569.73 1588.56 622.225C1466.35 674.721 1307.24 636.54 1233.13 537.205C1159.01 437.869 1197.73 314.718 1319.95 262.223C1442.17 209.728 1601.27 247.908 1675.39 347.244Z" stroke="url(#paint3_linear_47_284)" stroke-opacity="0.24" stroke-width="3"/>
</g>
<defs>
<linearGradient id="paint0_linear_47_284" x1="81.931" y1="-34.8408" x2="1025.69" y2="939.342" gradientUnits="userSpaceOnUse">
<stop stop-color="#F07B00"/>
<stop offset="1" stop-color="#FAC851"/>
</linearGradient>
<linearGradient id="paint1_linear_47_284" x1="1402.76" y1="525.836" x2="2515.38" y2="1625.77" gradientUnits="userSpaceOnUse">
<stop stop-color="white"/>
<stop offset="0.447917" stop-color="white" stop-opacity="0"/>
<stop offset="1" stop-color="white"/>
</linearGradient>
<linearGradient id="paint2_linear_47_284" x1="490.398" y1="353.369" x2="200.599" y2="114.817" gradientUnits="userSpaceOnUse">
<stop stop-color="white"/>
<stop offset="1" stop-color="white" stop-opacity="0"/>
</linearGradient>
<linearGradient id="paint3_linear_47_284" x1="1169.04" y1="360.28" x2="1379.85" y2="454.599" gradientUnits="userSpaceOnUse">
<stop stop-color="white"/>
<stop offset="1" stop-color="white" stop-opacity="0"/>
</linearGradient>
</defs>
</svg>
