<svg width="340" height="460" viewBox="0 0 340 460" fill="none" xmlns="http://www.w3.org/2000/svg">
<mask id="mask0_47_325" style="mask-type:alpha" maskUnits="userSpaceOnUse" x="0" y="0" width="340" height="460">
<rect width="340" height="460" rx="16" fill="white"/>
</mask>
<g mask="url(#mask0_47_325)">
<path d="M440 404C440 484.686 376.373 550 298 550C219.627 550 156 484.686 156 404C156 323.314 219.627 258 298 258C376.373 258 440 323.314 440 404Z" stroke="url(#paint0_linear_47_325)" stroke-opacity="0.36" stroke-width="4"/>
<path d="M-122.634 50.2662C-151.207 -8.90078 -127.674 -79.3113 -70.2246 -107.055C-12.7754 -134.798 57.0021 -109.45 85.5752 -50.2829C114.148 8.88407 90.615 79.2946 33.1658 107.038C-24.2834 134.782 -94.061 109.433 -122.634 50.2662Z" stroke="url(#paint1_linear_47_325)" stroke-opacity="0.36" stroke-width="4"/>
</g>
<defs>
<linearGradient id="paint0_linear_47_325" x1="167.981" y1="270.369" x2="302.182" y2="374.55" gradientUnits="userSpaceOnUse">
<stop stop-color="#F6A62D"/>
<stop offset="1" stop-color="white" stop-opacity="0"/>
</linearGradient>
<linearGradient id="paint1_linear_47_325" x1="124.556" y1="52.0926" x2="-11.1452" y2="23.1358" gradientUnits="userSpaceOnUse">
<stop stop-color="#F6A62D"/>
<stop offset="1" stop-color="white" stop-opacity="0"/>
</linearGradient>
</defs>
</svg>
