<svg width="190" height="46" viewBox="0 0 190 46" fill="none" xmlns="http://www.w3.org/2000/svg">
<path fill-rule="evenodd" clip-rule="evenodd" d="M23 46C35.7025 46 46 35.7025 46 23C46 10.2975 35.7025 0 23 0C10.2975 0 0 10.2975 0 23C0 35.7025 10.2975 46 23 46ZM23.0767 32.3533C28.2847 32.3533 32.5067 28.1314 32.5067 22.9233C32.5067 17.7153 28.2847 13.4933 23.0767 13.4933C17.8686 13.4933 13.6467 17.7153 13.6467 22.9233C13.6467 28.1314 17.8686 32.3533 23.0767 32.3533Z" fill="url(#paint0_linear_19_197)"/>
<path fill-rule="evenodd" clip-rule="evenodd" d="M46 23.0437C45.9764 35.7262 35.688 46 23 46C10.2975 46 0 35.7025 0 23C0 10.2975 10.2975 0 23 0C35.6885 0 45.9772 10.2746 46 22.9577C45.9772 13.7466 38.5031 6.28666 29.2867 6.28666C20.0562 6.28666 12.5733 13.7695 12.5733 23C12.5733 32.2305 20.0562 39.7133 29.2867 39.7133C38.5026 39.7133 45.9764 32.2541 46 23.0437ZM25.9547 31.9061C25.9301 31.9139 25.9055 31.9217 25.8809 31.9294C25.9055 31.9217 25.9301 31.914 25.9547 31.9061C25.9547 31.9061 25.9547 31.9061 25.9547 31.9061Z" fill="url(#paint1_radial_19_197)"/>
<path fill-rule="evenodd" clip-rule="evenodd" d="M46 23.0437C45.9764 35.7262 35.688 46 23 46C10.2975 46 0 35.7025 0 23C0 10.2975 10.2975 0 23 0C35.6885 0 45.9772 10.2746 46 22.9577C45.9772 13.7466 38.5031 6.28666 29.2867 6.28666C20.0562 6.28666 12.5733 13.7695 12.5733 23C12.5733 32.2305 20.0562 39.7133 29.2867 39.7133C38.5026 39.7133 45.9764 32.2541 46 23.0437ZM25.9547 31.9061C25.9301 31.9139 25.9055 31.9217 25.8809 31.9294C25.9055 31.9217 25.9301 31.914 25.9547 31.9061C25.9547 31.9061 25.9547 31.9061 25.9547 31.9061Z" fill="url(#paint2_radial_19_197)"/>
<path fill-rule="evenodd" clip-rule="evenodd" d="M23 37.1067C31.1296 37.1067 37.72 30.5164 37.72 22.3867C37.72 14.2571 31.1296 7.66675 23 7.66675C14.8704 7.66675 8.27998 14.2571 8.27998 22.3867C8.27998 30.5164 14.8704 37.1067 23 37.1067ZM23.0767 32.0468C28.4541 32.0468 32.8134 27.6875 32.8134 22.3101C32.8134 16.9327 28.4541 12.5734 23.0767 12.5734C17.6993 12.5734 13.34 16.9327 13.34 22.3101C13.34 27.6875 17.6993 32.0468 23.0767 32.0468Z" fill="url(#paint3_linear_19_197)"/>
<path fill-rule="evenodd" clip-rule="evenodd" d="M23 37.1067C31.1296 37.1067 37.72 30.5164 37.72 22.3867C37.72 14.2571 31.1296 7.66675 23 7.66675C14.8704 7.66675 8.27998 14.2571 8.27998 22.3867C8.27998 30.5164 14.8704 37.1067 23 37.1067ZM23.0767 32.0468C28.4541 32.0468 32.8134 27.6875 32.8134 22.3101C32.8134 16.9327 28.4541 12.5734 23.0767 12.5734C17.6993 12.5734 13.34 16.9327 13.34 22.3101C13.34 27.6875 17.6993 32.0468 23.0767 32.0468Z" fill="url(#paint4_radial_19_197)"/>
<path fill-rule="evenodd" clip-rule="evenodd" d="M18.065 2.33415L22.081 12.4666C18.9396 12.762 16.2007 14.441 14.4797 16.8877L10.3172 6.38549C10.123 5.15771 10.0109 4.38565 10.3962 3.75783C12.5166 2.36615 14.8808 1.31549 17.4109 0.683841L17.4124 0.687711L18.3234 0.459961C18.0789 0.851183 18.0153 1.70406 18.065 2.33415Z" fill="url(#paint5_linear_19_197)"/>
<path d="M18.63 13.4935L14.7472 3.34624C14.6976 2.71616 14.7426 1.77133 14.9871 1.38013L14.2205 1.68679L13.7605 1.87079C13.5062 2.31633 13.4605 3.19568 13.5122 3.9132L17.48 14.0301L17.4802 14.03C17.9912 13.6468 18.0934 13.5701 18.63 13.4935Z" fill="url(#paint6_linear_19_197)"/>
<path fill-rule="evenodd" clip-rule="evenodd" d="M28.0894 2.3342L24.0734 12.4665C27.2147 12.762 29.9537 14.4409 31.6747 16.8876L35.8371 6.38568C36.0313 5.15773 36.1434 4.3856 35.758 3.75773C33.6377 2.36609 31.2736 1.31547 28.7435 0.68384L28.742 0.687713L27.8309 0.459961C28.0755 0.851193 28.139 1.70411 28.0894 2.3342Z" fill="url(#paint7_linear_19_197)"/>
<path d="M27.5243 13.4935L31.4071 3.34624C31.4567 2.71616 31.4116 1.77133 31.1671 1.38013L31.9338 1.68679L32.3938 1.87079C32.6481 2.31633 32.6938 3.19568 32.6421 3.9132L28.6743 14.0301L28.6741 14.03C28.1631 13.6468 28.0609 13.5701 27.5243 13.4935Z" fill="url(#paint8_linear_19_197)"/>
<path fill-rule="evenodd" clip-rule="evenodd" d="M23 33.5799C28.8432 33.5799 33.58 28.8431 33.58 22.9999C33.58 17.1567 28.8432 12.4199 23 12.4199C17.1569 12.4199 12.42 17.1567 12.42 22.9999C12.42 28.8431 17.1569 33.5799 23 33.5799ZM23 32.0465C27.9963 32.0465 32.0467 27.9962 32.0467 22.9999C32.0467 18.0035 27.9963 13.9532 23 13.9532C18.0037 13.9532 13.9533 18.0035 13.9533 22.9999C13.9533 27.9962 18.0037 32.0465 23 32.0465Z" fill="#FFE896"/>
<path d="M28.3383 21.1135C28.267 20.8931 28.0715 20.7367 27.8402 20.7158L24.698 20.4307L23.4555 17.5242C23.3639 17.3112 23.1552 17.1733 22.9234 17.1733C22.6916 17.1733 22.4829 17.3112 22.3913 17.5247L21.1488 20.4307L18.0061 20.7158C17.7752 20.7372 17.5802 20.8931 17.5085 21.1135C17.4368 21.3338 17.503 21.5754 17.6777 21.7277L20.0528 23.8095L19.3524 26.8928C19.3012 27.1195 19.3892 27.3538 19.5775 27.4898C19.6786 27.5628 19.797 27.6 19.9163 27.6C20.0193 27.6 20.1213 27.5723 20.213 27.5175L22.9234 25.8985L25.6328 27.5175C25.8311 27.6367 26.081 27.6258 26.2688 27.4898C26.4571 27.3534 26.5451 27.119 26.4938 26.8928L25.7935 23.8095L28.1686 21.7281C28.3433 21.5754 28.41 21.3342 28.3383 21.1135V21.1135Z" fill="url(#paint9_linear_19_197)"/>
<path fill-rule="evenodd" clip-rule="evenodd" d="M20.6546 45.8819C10.4303 42.4397 3.06665 32.7748 3.06665 21.3899C3.06665 14.9141 5.44916 8.99466 9.38547 4.46045C3.69365 8.64727 0 15.3923 0 23C0 34.9108 9.05373 44.7069 20.6546 45.8819Z" fill="url(#paint10_radial_19_197)"/>
<path fill-rule="evenodd" clip-rule="evenodd" d="M20.6546 45.8819C10.4303 42.4397 3.06665 32.7748 3.06665 21.3899C3.06665 14.9141 5.44916 8.99466 9.38547 4.46045C3.69365 8.64727 0 15.3923 0 23C0 34.9108 9.05373 44.7069 20.6546 45.8819Z" fill="url(#paint11_radial_19_197)"/>
<path d="M78.6582 23.9785C78.6582 25.5189 78.4668 26.9225 78.084 28.1895C77.7012 29.4473 77.1178 30.5319 76.334 31.4434C75.5592 32.3548 74.5749 33.0566 73.3809 33.5488C72.1868 34.0319 70.7741 34.2734 69.1426 34.2734C67.5111 34.2734 66.0983 34.0319 64.9043 33.5488C63.7103 33.0566 62.7214 32.3548 61.9375 31.4434C61.1628 30.5319 60.584 29.4427 60.2012 28.1758C59.8184 26.9089 59.627 25.5007 59.627 23.9512C59.627 21.8822 59.9642 20.082 60.6387 18.5508C61.3223 17.0104 62.3704 15.8164 63.7832 14.9688C65.196 14.1211 66.9915 13.6973 69.1699 13.6973C71.3392 13.6973 73.1211 14.1211 74.5156 14.9688C75.9193 15.8164 76.9583 17.0104 77.6328 18.5508C78.3164 20.0911 78.6582 21.9004 78.6582 23.9785ZM64.0703 23.9785C64.0703 25.373 64.2435 26.5762 64.5898 27.5879C64.9453 28.5905 65.4967 29.3652 66.2441 29.9121C66.9915 30.4499 67.9577 30.7188 69.1426 30.7188C70.3457 30.7188 71.321 30.4499 72.0684 29.9121C72.8158 29.3652 73.3581 28.5905 73.6953 27.5879C74.0417 26.5762 74.2148 25.373 74.2148 23.9785C74.2148 21.8822 73.8229 20.2324 73.0391 19.0293C72.2552 17.8262 70.9655 17.2246 69.1699 17.2246C67.9759 17.2246 67.0007 17.498 66.2441 18.0449C65.4967 18.5827 64.9453 19.3574 64.5898 20.3691C64.2435 21.3717 64.0703 22.5749 64.0703 23.9785ZM88.6797 34.2734C87.1667 34.2734 85.877 34 84.8105 33.4531C83.7441 32.8971 82.9329 32.0404 82.377 30.8828C81.821 29.7253 81.543 28.2441 81.543 26.4395C81.543 24.571 81.8574 23.0488 82.4863 21.873C83.1243 20.6882 84.0039 19.8177 85.125 19.2617C86.2552 18.7057 87.5632 18.4277 89.0488 18.4277C90.1061 18.4277 91.0176 18.5326 91.7832 18.7422C92.5579 18.9427 93.2324 19.1842 93.8066 19.4668L92.5762 22.6934C91.9199 22.429 91.3092 22.2148 90.7441 22.0508C90.179 21.8776 89.6139 21.791 89.0488 21.791C88.3197 21.791 87.7135 21.9642 87.2305 22.3105C86.7474 22.6478 86.3874 23.1582 86.1504 23.8418C85.9134 24.5254 85.7949 25.3822 85.7949 26.4121C85.7949 27.4238 85.9225 28.2624 86.1777 28.9277C86.4329 29.5931 86.8021 30.0898 87.2852 30.418C87.7682 30.737 88.3561 30.8965 89.0488 30.8965C89.9147 30.8965 90.6849 30.7826 91.3594 30.5547C92.0339 30.3177 92.6901 29.9896 93.3281 29.5703V33.1387C92.6901 33.5397 92.0202 33.8268 91.3184 34C90.6257 34.1823 89.7461 34.2734 88.6797 34.2734ZM103.145 18.4004C105.195 18.4004 106.768 18.847 107.861 19.7402C108.955 20.6335 109.502 21.9915 109.502 23.8145V34H106.59L105.783 31.9219H105.674C105.236 32.4688 104.79 32.9154 104.334 33.2617C103.878 33.6081 103.354 33.8633 102.762 34.0273C102.169 34.1914 101.449 34.2734 100.602 34.2734C99.6992 34.2734 98.888 34.1003 98.168 33.7539C97.457 33.4076 96.8965 32.8789 96.4863 32.168C96.0762 31.4479 95.8711 30.5365 95.8711 29.4336C95.8711 27.8112 96.4408 26.6172 97.5801 25.8516C98.7194 25.0768 100.428 24.6484 102.707 24.5664L105.359 24.4844V23.8145C105.359 23.0124 105.15 22.4245 104.73 22.0508C104.311 21.6771 103.728 21.4902 102.98 21.4902C102.242 21.4902 101.518 21.5951 100.807 21.8047C100.096 22.0143 99.3848 22.2786 98.6738 22.5977L97.293 19.7812C98.1042 19.3529 99.0111 19.0156 100.014 18.7695C101.025 18.5234 102.069 18.4004 103.145 18.4004ZM105.359 26.918L103.746 26.9727C102.397 27.0091 101.458 27.2507 100.93 27.6973C100.41 28.1439 100.15 28.7318 100.15 29.4609C100.15 30.099 100.337 30.5547 100.711 30.8281C101.085 31.0924 101.572 31.2246 102.174 31.2246C103.067 31.2246 103.819 30.9603 104.43 30.4316C105.049 29.903 105.359 29.151 105.359 28.1758V26.918ZM118.648 34.2734C116.944 34.2734 115.554 33.6081 114.479 32.2773C113.412 30.9375 112.879 28.9733 112.879 26.3848C112.879 23.7689 113.421 21.791 114.506 20.4512C115.59 19.1022 117.008 18.4277 118.758 18.4277C119.487 18.4277 120.13 18.528 120.686 18.7285C121.242 18.929 121.72 19.1979 122.121 19.5352C122.531 19.8724 122.878 20.2507 123.16 20.6699H123.297C123.242 20.3783 123.174 19.9499 123.092 19.3848C123.019 18.8105 122.982 18.2227 122.982 17.6211V12.7266H127.166V34H123.967L123.16 32.0176H122.982C122.718 32.4368 122.385 32.8197 121.984 33.166C121.592 33.5033 121.123 33.7721 120.576 33.9727C120.029 34.1732 119.387 34.2734 118.648 34.2734ZM120.111 30.9512C121.251 30.9512 122.053 30.6139 122.518 29.9395C122.992 29.2559 123.242 28.2305 123.27 26.8633V26.4121C123.27 24.9264 123.042 23.7917 122.586 23.0078C122.13 22.2148 121.283 21.8184 120.043 21.8184C119.122 21.8184 118.402 22.2148 117.883 23.0078C117.363 23.8008 117.104 24.9447 117.104 26.4395C117.104 27.9342 117.363 29.0599 117.883 29.8164C118.411 30.5729 119.154 30.9512 120.111 30.9512ZM137.83 18.4277C139.243 18.4277 140.46 18.7012 141.48 19.248C142.501 19.7858 143.29 20.5697 143.846 21.5996C144.402 22.6296 144.68 23.8874 144.68 25.373V27.3965H134.822C134.868 28.5723 135.219 29.4974 135.875 30.1719C136.54 30.8372 137.461 31.1699 138.637 31.1699C139.612 31.1699 140.505 31.0697 141.316 30.8691C142.128 30.6686 142.962 30.3678 143.818 29.9668V33.1934C143.062 33.5671 142.269 33.8405 141.439 34.0137C140.619 34.1868 139.621 34.2734 138.445 34.2734C136.914 34.2734 135.556 33.9909 134.371 33.4258C133.195 32.8607 132.27 31.9993 131.596 30.8418C130.93 29.6842 130.598 28.2259 130.598 26.4668C130.598 24.6803 130.898 23.1947 131.5 22.0098C132.111 20.8158 132.958 19.9225 134.043 19.3301C135.128 18.7285 136.39 18.4277 137.83 18.4277ZM137.857 21.3945C137.046 21.3945 136.372 21.6543 135.834 22.1738C135.305 22.6934 135 23.5091 134.918 24.6211H140.77C140.76 24.0013 140.646 23.4499 140.428 22.9668C140.218 22.4837 139.899 22.1009 139.471 21.8184C139.051 21.5358 138.514 21.3945 137.857 21.3945ZM166.021 18.4277C167.753 18.4277 169.061 18.8743 169.945 19.7676C170.839 20.6517 171.285 22.0736 171.285 24.0332V34H167.102V25.0723C167.102 23.9785 166.915 23.1536 166.541 22.5977C166.167 22.0417 165.589 21.7637 164.805 21.7637C163.702 21.7637 162.918 22.1602 162.453 22.9531C161.988 23.737 161.756 24.8626 161.756 26.3301V34H157.586V25.0723C157.586 24.3431 157.504 23.7324 157.34 23.2402C157.176 22.748 156.925 22.3789 156.588 22.1328C156.251 21.8867 155.818 21.7637 155.289 21.7637C154.514 21.7637 153.904 21.9596 153.457 22.3516C153.02 22.7344 152.705 23.304 152.514 24.0605C152.331 24.8079 152.24 25.724 152.24 26.8086V34H148.07V18.7148H151.256L151.816 20.6699H152.049C152.359 20.1413 152.746 19.7129 153.211 19.3848C153.685 19.0566 154.204 18.8151 154.77 18.6602C155.335 18.5052 155.909 18.4277 156.492 18.4277C157.613 18.4277 158.561 18.61 159.336 18.9746C160.12 19.3392 160.721 19.9043 161.141 20.6699H161.51C161.965 19.8861 162.608 19.3164 163.438 18.9609C164.276 18.6055 165.137 18.4277 166.021 18.4277ZM173.391 18.7148H177.957L180.842 27.3145C180.933 27.5879 181.01 27.8659 181.074 28.1484C181.138 28.431 181.193 28.7227 181.238 29.0234C181.284 29.3242 181.32 29.6387 181.348 29.9668H181.43C181.484 29.4746 181.557 29.0143 181.648 28.5859C181.749 28.1576 181.872 27.7337 182.018 27.3145L184.848 18.7148H189.318L182.852 35.9551C182.46 37.0124 181.949 37.8919 181.32 38.5938C180.691 39.3047 179.967 39.8379 179.146 40.1934C178.335 40.5488 177.442 40.7266 176.467 40.7266C175.993 40.7266 175.583 40.6992 175.236 40.6445C174.89 40.599 174.594 40.5488 174.348 40.4941V37.1855C174.539 37.2311 174.781 37.2721 175.072 37.3086C175.364 37.3451 175.669 37.3633 175.988 37.3633C176.572 37.3633 177.073 37.2402 177.492 36.9941C177.911 36.748 178.262 36.4154 178.545 35.9961C178.827 35.5859 179.051 35.1348 179.215 34.6426L179.461 33.8906L173.391 18.7148Z" fill="#FF6B00"/>
<defs>
<linearGradient id="paint0_linear_19_197" x1="46" y1="18.0933" x2="-7.69696e-07" y2="31.97" gradientUnits="userSpaceOnUse">
<stop stop-color="#FAD475"/>
<stop offset="0.71875" stop-color="#FFE5A2"/>
</linearGradient>
<radialGradient id="paint1_radial_19_197" cx="0" cy="0" r="1" gradientUnits="userSpaceOnUse" gradientTransform="translate(23.69 22.08) rotate(0.590655) scale(22.3112)">
<stop offset="0.311476" stop-color="#FFE99D"/>
<stop offset="1" stop-color="#F8BC24"/>
</radialGradient>
<radialGradient id="paint2_radial_19_197" cx="0" cy="0" r="1" gradientUnits="userSpaceOnUse" gradientTransform="translate(34.1933 23) rotate(-178.332) scale(23.7 23.0097)">
<stop offset="0.347648" stop-color="#FCD981"/>
<stop offset="1" stop-color="white" stop-opacity="0"/>
</radialGradient>
<linearGradient id="paint3_linear_19_197" x1="8.27998" y1="22.3867" x2="33.58" y2="23.2301" gradientUnits="userSpaceOnUse">
<stop offset="0.541667" stop-color="#FFD86F"/>
<stop offset="1" stop-color="#FBDC8C"/>
</linearGradient>
<radialGradient id="paint4_radial_19_197" cx="0" cy="0" r="1" gradientUnits="userSpaceOnUse" gradientTransform="translate(23 22.3867) rotate(44.6506) scale(17.7817 15.7437)">
<stop offset="0.3125" stop-color="#FECD1D"/>
<stop offset="1" stop-color="#FBD980"/>
</radialGradient>
<linearGradient id="paint5_linear_19_197" x1="16.1101" y1="0.459961" x2="16.1101" y2="16.8877" gradientUnits="userSpaceOnUse">
<stop stop-color="#DC1717"/>
<stop offset="0.859375" stop-color="#FF7676" stop-opacity="0.68"/>
</linearGradient>
<linearGradient id="paint6_linear_19_197" x1="16.0617" y1="1.38013" x2="16.0617" y2="14.0301" gradientUnits="userSpaceOnUse">
<stop stop-color="#E7E7E7"/>
<stop offset="1" stop-color="white"/>
</linearGradient>
<linearGradient id="paint7_linear_19_197" x1="30.0442" y1="0.459961" x2="30.0442" y2="16.8876" gradientUnits="userSpaceOnUse">
<stop stop-color="#DC1717"/>
<stop offset="0.859375" stop-color="#FF7676" stop-opacity="0.68"/>
</linearGradient>
<linearGradient id="paint8_linear_19_197" x1="30.0926" y1="1.38013" x2="30.0926" y2="14.0301" gradientUnits="userSpaceOnUse">
<stop stop-color="#E7E7E7"/>
<stop offset="1" stop-color="white"/>
</linearGradient>
<linearGradient id="paint9_linear_19_197" x1="22.3602" y1="17.1733" x2="26.3603" y2="27.5548" gradientUnits="userSpaceOnUse">
<stop stop-color="#FFC107"/>
<stop offset="1" stop-color="#FFDA6A" stop-opacity="0.37"/>
</linearGradient>
<radialGradient id="paint10_radial_19_197" cx="0" cy="0" r="1" gradientUnits="userSpaceOnUse" gradientTransform="translate(23.6901 22.0801) rotate(0.590651) scale(22.3113)">
<stop offset="0.311476" stop-color="#FFE99D"/>
<stop offset="1" stop-color="#FFA505"/>
</radialGradient>
<radialGradient id="paint11_radial_19_197" cx="0" cy="0" r="1" gradientUnits="userSpaceOnUse" gradientTransform="translate(24.5335 21.4668) rotate(87.2583) scale(27.2478 26.4544)">
<stop offset="0.347648" stop-color="#FCD981"/>
<stop offset="1" stop-color="white" stop-opacity="0"/>
</radialGradient>
</defs>
</svg>
